<?xml version="1.0" standalone="no"?>
<!DOCTYPE svg PUBLIC "-//W3C//DTD SVG 20010904//EN"
 "http://www.w3.org/TR/2001/REC-SVG-20010904/DTD/svg10.dtd">
<svg version="1.0" xmlns="http://www.w3.org/2000/svg"
 width="512.000000pt" height="512.000000pt" viewBox="0 0 512.000000 512.000000"
 preserveAspectRatio="xMidYMid meet">
<metadata>
Created by potrace 1.16, written by Peter Selinger 2001-2019
</metadata>
<g transform="translate(0.000000,512.000000) scale(0.100000,-0.100000)"
fill="#000000" stroke="none">
<path d="M1770 3925 c0 -841 1 -885 18 -885 61 0 408 104 555 166 146 62 188
80 267 117 170 79 525 291 677 404 109 81 212 160 231 178 l22 21 -77 61
c-122 96 -301 222 -428 300 -89 55 -155 93 -163 93 -6 0 -12 4 -14 9 -3 10
-276 150 -363 188 -27 12 -84 36 -125 54 -141 60 -530 178 -592 179 -5 0 -8
-398 -8 -885z"/>
<path d="M1085 1460 c-421 -84 -639 -270 -532 -453 51 -86 163 -159 333 -216
96 -32 273 -71 323 -71 l31 0 0 380 0 380 -32 -1 c-18 0 -74 -9 -123 -19z"/>
<path d="M1770 1100 l0 -380 26 0 c41 0 217 38 307 66 228 72 376 195 377 313
1 116 -154 245 -377 315 -91 28 -266 66 -307 66 l-26 0 0 -380z"/>
</g>
</svg>
